<svg xmlns="http://www.w3.org/2000/svg" xmlns:xlink="http://www.w3.org/1999/xlink" width="419" zoomAndPan="magnify" viewBox="0 0 314.25 67.499998" height="90" preserveAspectRatio="xMidYMid meet" version="1.0"><defs><g/><clipPath id="857325ef11"><path d="M 0.871094 0.0625 L 67.875 0.0625 L 67.875 67.003906 L 0.871094 67.003906 Z M 0.871094 0.0625 " clip-rule="nonzero"/></clipPath></defs><g clip-path="url(#857325ef11)"><path fill="#5e17eb" d="M 34.371094 67.066406 C 52.875 67.066406 67.875 52.066406 67.875 33.566406 C 67.875 15.0625 52.875 0.0625 34.371094 0.0625 C 15.867188 0.0625 0.871094 15.0625 0.871094 33.566406 C 0.871094 52.066406 15.867188 67.066406 34.371094 67.066406 Z M 16.503906 25.441406 C 16.503906 20.0625 20.867188 15.699219 26.25 15.699219 L 42.492188 15.699219 C 47.875 15.699219 52.238281 20.0625 52.238281 25.441406 L 52.238281 41.6875 C 52.238281 47.070312 47.875 51.433594 42.492188 51.433594 L 26.25 51.433594 C 20.867188 51.433594 16.503906 47.070312 16.503906 41.6875 Z M 32.746094 23.820312 L 32.746094 31.941406 L 24.625 31.941406 L 24.625 35.1875 L 32.746094 35.1875 L 32.746094 43.3125 L 35.996094 43.3125 L 35.996094 35.1875 L 44.117188 35.1875 L 44.117188 31.941406 L 35.996094 31.941406 L 35.996094 23.820312 Z M 32.746094 23.820312 " fill-opacity="1" fill-rule="evenodd"/></g><g fill="#5e17eb" fill-opacity="1"><g transform="translate(73.800105, 47.274813)"><g><path d="M 1.875 6.40625 L 9.25 2.796875 C 10.601562 5.035156 12.957031 6.15625 16.3125 6.15625 C 17.875 6.15625 19.320312 5.65625 20.65625 4.65625 C 22 3.65625 22.671875 2.117188 22.671875 0.046875 L 22.671875 -1.875 C 21.078125 -0.113281 18.226562 0.765625 14.125 0.765625 C 10.363281 0.765625 7.265625 -0.5625 4.828125 -3.21875 C 2.390625 -5.882812 1.171875 -9.148438 1.171875 -13.015625 C 1.171875 -16.878906 2.390625 -20.148438 4.828125 -22.828125 C 7.265625 -25.503906 10.363281 -26.84375 14.125 -26.84375 C 17.476562 -26.84375 20.273438 -25.804688 22.515625 -23.734375 L 22.671875 -23.734375 L 22.671875 -26.078125 L 31.671875 -26.078125 L 31.671875 0.71875 C 31.671875 4.945312 30.265625 8.210938 27.453125 10.515625 C 24.640625 12.828125 20.925781 13.984375 16.3125 13.984375 C 8.863281 13.984375 4.050781 11.457031 1.875 6.40625 Z M 12.46875 -17.421875 C 11.300781 -16.273438 10.71875 -14.800781 10.71875 -13 C 10.71875 -11.207031 11.273438 -9.742188 12.390625 -8.609375 C 13.515625 -7.472656 14.992188 -6.90625 16.828125 -6.90625 C 18.585938 -6.90625 20.035156 -7.484375 21.171875 -8.640625 C 22.304688 -9.796875 22.875 -11.253906 22.875 -13.015625 C 22.875 -14.804688 22.285156 -16.273438 21.109375 -17.421875 C 19.941406 -18.578125 18.515625 -19.15625 16.828125 -19.15625 C 15.097656 -19.15625 13.644531 -18.578125 12.46875 -17.421875 Z M 12.46875 -17.421875 "/></g></g></g><g fill="#5e17eb" fill-opacity="1"><g transform="translate(103.733334, 47.274813)"><g><path d="M 11.53125 -26.078125 L 11.53125 -13.671875 C 11.53125 -11.097656 11.921875 -9.269531 12.703125 -8.1875 C 13.484375 -7.101562 14.804688 -6.5625 16.671875 -6.5625 C 18.535156 -6.5625 19.859375 -7.101562 20.640625 -8.1875 C 21.421875 -9.269531 21.8125 -11.097656 21.8125 -13.671875 L 21.8125 -26.078125 L 30.796875 -26.078125 L 30.796875 -11.484375 C 30.796875 -7.148438 29.671875 -4.023438 27.421875 -2.109375 C 25.171875 -0.191406 21.585938 0.765625 16.671875 0.765625 C 11.753906 0.765625 8.171875 -0.191406 5.921875 -2.109375 C 3.671875 -4.023438 2.546875 -7.148438 2.546875 -11.484375 L 2.546875 -26.078125 Z M 11.53125 -26.078125 "/></g></g></g><g fill="#5e17eb" fill-opacity="1"><g transform="translate(132.29435, 47.274813)"><g><path d="M 29.421875 -11.796875 L 10.515625 -11.796875 C 10.515625 -9.960938 11.109375 -8.601562 12.296875 -7.71875 C 13.484375 -6.84375 14.769531 -6.40625 16.15625 -6.40625 C 17.613281 -6.40625 18.765625 -6.597656 19.609375 -6.984375 C 20.460938 -7.378906 21.429688 -8.148438 22.515625 -9.296875 L 29.015625 -6.046875 C 26.304688 -1.503906 21.800781 0.765625 15.5 0.765625 C 11.570312 0.765625 8.203125 -0.578125 5.390625 -3.265625 C 2.578125 -5.960938 1.171875 -9.207031 1.171875 -13 C 1.171875 -16.800781 2.578125 -20.054688 5.390625 -22.765625 C 8.203125 -25.484375 11.570312 -26.84375 15.5 -26.84375 C 19.632812 -26.84375 23 -25.644531 25.59375 -23.25 C 28.1875 -20.863281 29.484375 -17.453125 29.484375 -13.015625 C 29.484375 -12.398438 29.460938 -11.992188 29.421875 -11.796875 Z M 10.78125 -16.765625 L 20.6875 -16.765625 C 20.476562 -18.128906 19.941406 -19.171875 19.078125 -19.890625 C 18.222656 -20.617188 17.113281 -20.984375 15.75 -20.984375 C 14.257812 -20.984375 13.070312 -20.59375 12.1875 -19.8125 C 11.3125 -19.039062 10.84375 -18.023438 10.78125 -16.765625 Z M 10.78125 -16.765625 "/></g></g></g><g fill="#5e17eb" fill-opacity="1"><g transform="translate(158.161753, 47.274813)"><g><path d="M 14.390625 -26.84375 C 15.878906 -26.84375 17.347656 -26.671875 18.796875 -26.328125 C 20.253906 -25.992188 21.34375 -25.65625 22.0625 -25.3125 L 23.125 -24.796875 L 20.171875 -18.90625 C 18.140625 -19.988281 16.210938 -20.53125 14.390625 -20.53125 C 13.367188 -20.53125 12.644531 -20.421875 12.21875 -20.203125 C 11.800781 -19.984375 11.59375 -19.566406 11.59375 -18.953125 C 11.59375 -18.816406 11.609375 -18.679688 11.640625 -18.546875 C 11.671875 -18.410156 11.738281 -18.285156 11.84375 -18.171875 C 11.945312 -18.054688 12.039062 -17.953125 12.125 -17.859375 C 12.207031 -17.773438 12.347656 -17.679688 12.546875 -17.578125 C 12.753906 -17.484375 12.914062 -17.410156 13.03125 -17.359375 C 13.15625 -17.304688 13.351562 -17.226562 13.625 -17.125 C 13.894531 -17.03125 14.097656 -16.957031 14.234375 -16.90625 C 14.367188 -16.851562 14.597656 -16.773438 14.921875 -16.671875 C 15.242188 -16.566406 15.488281 -16.5 15.65625 -16.46875 C 16.707031 -16.164062 17.617188 -15.828125 18.390625 -15.453125 C 19.171875 -15.078125 19.992188 -14.566406 20.859375 -13.921875 C 21.722656 -13.285156 22.390625 -12.472656 22.859375 -11.484375 C 23.335938 -10.503906 23.578125 -9.382812 23.578125 -8.125 C 23.578125 -2.195312 19.460938 0.765625 11.234375 0.765625 C 9.367188 0.765625 7.597656 0.476562 5.921875 -0.09375 C 4.242188 -0.675781 3.03125 -1.253906 2.28125 -1.828125 L 1.171875 -2.75 L 4.828125 -8.890625 C 5.097656 -8.660156 5.453125 -8.382812 5.890625 -8.0625 C 6.335938 -7.738281 7.132812 -7.296875 8.28125 -6.734375 C 9.4375 -6.171875 10.4375 -5.890625 11.28125 -5.890625 C 13.144531 -5.890625 14.078125 -6.519531 14.078125 -7.78125 C 14.078125 -8.351562 13.835938 -8.800781 13.359375 -9.125 C 12.890625 -9.445312 12.085938 -9.8125 10.953125 -10.21875 C 9.816406 -10.625 8.925781 -10.992188 8.28125 -11.328125 C 6.65625 -12.179688 5.367188 -13.140625 4.421875 -14.203125 C 3.472656 -15.273438 3 -16.691406 3 -18.453125 C 3 -21.097656 4.023438 -23.15625 6.078125 -24.625 C 8.128906 -26.101562 10.898438 -26.84375 14.390625 -26.84375 Z M 14.390625 -26.84375 "/></g></g></g><g fill="#5e17eb" fill-opacity="1"><g transform="translate(178.387831, 47.274813)"><g><path d="M 4.578125 -26.078125 L 4.578125 -35.78125 L 13.578125 -35.78125 L 13.578125 -26.078125 L 19.0625 -26.078125 L 19.0625 -19.21875 L 13.578125 -19.21875 L 13.578125 -10.921875 C 13.578125 -8.515625 14.253906 -7.3125 15.609375 -7.3125 C 15.941406 -7.3125 16.296875 -7.378906 16.671875 -7.515625 C 17.046875 -7.648438 17.332031 -7.785156 17.53125 -7.921875 L 17.84375 -8.125 L 20.078125 -0.859375 C 18.148438 0.222656 15.945312 0.765625 13.46875 0.765625 C 11.769531 0.765625 10.3125 0.46875 9.09375 -0.125 C 7.875 -0.71875 6.953125 -1.515625 6.328125 -2.515625 C 5.703125 -3.515625 5.253906 -4.5625 4.984375 -5.65625 C 4.710938 -6.757812 4.578125 -7.941406 4.578125 -9.203125 L 4.578125 -19.21875 L 0.8125 -19.21875 L 0.8125 -26.078125 Z M 4.578125 -26.078125 "/></g></g></g><g fill="#5e17eb" fill-opacity="1"><g transform="translate(193.684086, 47.274813)"><g><path d="M 29.890625 -22.84375 C 32.328125 -20.1875 33.546875 -16.925781 33.546875 -13.0625 C 33.546875 -9.195312 32.328125 -5.925781 29.890625 -3.25 C 27.453125 -0.570312 24.347656 0.765625 20.578125 0.765625 C 17.128906 0.765625 14.285156 -0.316406 12.046875 -2.484375 L 12.046875 13.21875 L 3.046875 13.21875 L 3.046875 -26.078125 L 11.9375 -26.078125 L 11.9375 -23.125 L 12.046875 -23.125 C 14.285156 -25.601562 17.128906 -26.84375 20.578125 -26.84375 C 24.347656 -26.84375 27.453125 -25.507812 29.890625 -22.84375 Z M 22.234375 -8.640625 C 23.398438 -9.796875 23.984375 -11.269531 23.984375 -13.0625 C 23.984375 -14.851562 23.425781 -16.316406 22.3125 -17.453125 C 21.195312 -18.585938 19.722656 -19.15625 17.890625 -19.15625 C 16.128906 -19.15625 14.679688 -18.578125 13.546875 -17.421875 C 12.410156 -16.273438 11.84375 -14.820312 11.84375 -13.0625 C 11.84375 -11.269531 12.425781 -9.796875 13.59375 -8.640625 C 14.757812 -7.484375 16.191406 -6.90625 17.890625 -6.90625 C 19.617188 -6.90625 21.066406 -7.484375 22.234375 -8.640625 Z M 22.234375 -8.640625 "/></g></g></g><g fill="#5e17eb" fill-opacity="1"><g transform="translate(223.617309, 47.274813)"><g><path d="M 5.515625 -3.09375 C 2.617188 -5.675781 1.171875 -8.984375 1.171875 -13.015625 C 1.171875 -17.046875 2.675781 -20.359375 5.6875 -22.953125 C 8.707031 -25.546875 12.4375 -26.84375 16.875 -26.84375 C 21.25 -26.84375 24.929688 -25.535156 27.921875 -22.921875 C 30.921875 -20.316406 32.421875 -17.015625 32.421875 -13.015625 C 32.421875 -9.015625 30.957031 -5.71875 28.03125 -3.125 C 25.101562 -0.53125 21.382812 0.765625 16.875 0.765625 C 12.195312 0.765625 8.410156 -0.519531 5.515625 -3.09375 Z M 12.46875 -17.421875 C 11.300781 -16.273438 10.71875 -14.800781 10.71875 -13 C 10.71875 -11.207031 11.273438 -9.742188 12.390625 -8.609375 C 13.515625 -7.472656 14.992188 -6.90625 16.828125 -6.90625 C 18.585938 -6.90625 20.035156 -7.484375 21.171875 -8.640625 C 22.304688 -9.796875 22.875 -11.253906 22.875 -13.015625 C 22.875 -14.804688 22.285156 -16.273438 21.109375 -17.421875 C 19.941406 -18.578125 18.515625 -19.15625 16.828125 -19.15625 C 15.097656 -19.15625 13.644531 -18.578125 12.46875 -17.421875 Z M 12.46875 -17.421875 "/></g></g></g><g fill="#5e17eb" fill-opacity="1"><g transform="translate(252.432441, 47.274813)"><g><path d="M 14.390625 -26.84375 C 15.878906 -26.84375 17.347656 -26.671875 18.796875 -26.328125 C 20.253906 -25.992188 21.34375 -25.65625 22.0625 -25.3125 L 23.125 -24.796875 L 20.171875 -18.90625 C 18.140625 -19.988281 16.210938 -20.53125 14.390625 -20.53125 C 13.367188 -20.53125 12.644531 -20.421875 12.21875 -20.203125 C 11.800781 -19.984375 11.59375 -19.566406 11.59375 -18.953125 C 11.59375 -18.816406 11.609375 -18.679688 11.640625 -18.546875 C 11.671875 -18.410156 11.738281 -18.285156 11.84375 -18.171875 C 11.945312 -18.054688 12.039062 -17.953125 12.125 -17.859375 C 12.207031 -17.773438 12.347656 -17.679688 12.546875 -17.578125 C 12.753906 -17.484375 12.914062 -17.410156 13.03125 -17.359375 C 13.15625 -17.304688 13.351562 -17.226562 13.625 -17.125 C 13.894531 -17.03125 14.097656 -16.957031 14.234375 -16.90625 C 14.367188 -16.851562 14.597656 -16.773438 14.921875 -16.671875 C 15.242188 -16.566406 15.488281 -16.5 15.65625 -16.46875 C 16.707031 -16.164062 17.617188 -15.828125 18.390625 -15.453125 C 19.171875 -15.078125 19.992188 -14.566406 20.859375 -13.921875 C 21.722656 -13.285156 22.390625 -12.472656 22.859375 -11.484375 C 23.335938 -10.503906 23.578125 -9.382812 23.578125 -8.125 C 23.578125 -2.195312 19.460938 0.765625 11.234375 0.765625 C 9.367188 0.765625 7.597656 0.476562 5.921875 -0.09375 C 4.242188 -0.675781 3.03125 -1.253906 2.28125 -1.828125 L 1.171875 -2.75 L 4.828125 -8.890625 C 5.097656 -8.660156 5.453125 -8.382812 5.890625 -8.0625 C 6.335938 -7.738281 7.132812 -7.296875 8.28125 -6.734375 C 9.4375 -6.171875 10.4375 -5.890625 11.28125 -5.890625 C 13.144531 -5.890625 14.078125 -6.519531 14.078125 -7.78125 C 14.078125 -8.351562 13.835938 -8.800781 13.359375 -9.125 C 12.890625 -9.445312 12.085938 -9.8125 10.953125 -10.21875 C 9.816406 -10.625 8.925781 -10.992188 8.28125 -11.328125 C 6.65625 -12.179688 5.367188 -13.140625 4.421875 -14.203125 C 3.472656 -15.273438 3 -16.691406 3 -18.453125 C 3 -21.097656 4.023438 -23.15625 6.078125 -24.625 C 8.128906 -26.101562 10.898438 -26.84375 14.390625 -26.84375 Z M 14.390625 -26.84375 "/></g></g></g><g fill="#5e17eb" fill-opacity="1"><g transform="translate(272.658525, 47.274813)"><g><path d="M 4.578125 -26.078125 L 4.578125 -35.78125 L 13.578125 -35.78125 L 13.578125 -26.078125 L 19.0625 -26.078125 L 19.0625 -19.21875 L 13.578125 -19.21875 L 13.578125 -10.921875 C 13.578125 -8.515625 14.253906 -7.3125 15.609375 -7.3125 C 15.941406 -7.3125 16.296875 -7.378906 16.671875 -7.515625 C 17.046875 -7.648438 17.332031 -7.785156 17.53125 -7.921875 L 17.84375 -8.125 L 20.078125 -0.859375 C 18.148438 0.222656 15.945312 0.765625 13.46875 0.765625 C 11.769531 0.765625 10.3125 0.46875 9.09375 -0.125 C 7.875 -0.71875 6.953125 -1.515625 6.328125 -2.515625 C 5.703125 -3.515625 5.253906 -4.5625 4.984375 -5.65625 C 4.710938 -6.757812 4.578125 -7.941406 4.578125 -9.203125 L 4.578125 -19.21875 L 0.8125 -19.21875 L 0.8125 -26.078125 Z M 4.578125 -26.078125 "/></g></g></g><g fill="#5e17eb" fill-opacity="1"><g transform="translate(287.95478, 47.274813)"><g/></g></g><g fill="#5e17eb" fill-opacity="1"><g transform="translate(297.050663, 47.274813)"><g><path d="M 8.84375 -10.875 C 10.46875 -10.875 11.847656 -10.304688 12.984375 -9.171875 C 14.117188 -8.035156 14.6875 -6.65625 14.6875 -5.03125 C 14.6875 -3.4375 14.117188 -2.070312 12.984375 -0.9375 C 11.847656 0.195312 10.46875 0.765625 8.84375 0.765625 C 7.25 0.765625 5.882812 0.195312 4.75 -0.9375 C 3.613281 -2.070312 3.046875 -3.4375 3.046875 -5.03125 C 3.046875 -6.65625 3.613281 -8.035156 4.75 -9.171875 C 5.882812 -10.304688 7.25 -10.875 8.84375 -10.875 Z M 8.84375 -10.875 "/></g></g></g></svg>